<?xml version="1.0" encoding="utf-8"?>
<!-- Generator: Adobe Illustrator 18.1.1, SVG Export Plug-In . SVG Version: 6.00 Build 0)  -->
<svg version="1.1" id="Capa_1" xmlns="http://www.w3.org/2000/svg" xmlns:xlink="http://www.w3.org/1999/xlink" x="0px" y="0px"
	 viewBox="0 0 128.9 79.4" enable-background="new 0 0 128.9 79.4" xml:space="preserve">
<g>
	<path fill="#DF2B3F" d="M37,30.6h-4.2v-3.8H37V30.6z M32.9,32.5H37v15.7h-4.2V32.5z"/>
	<path fill="#F4A60B" d="M49.3,32.7c0.7,0.4,1.3,1,1.8,1.7V27h4.2v21.2h-4V46c-0.6,0.9-1.3,1.6-2,2c-0.7,0.4-1.7,0.6-2.8,0.6
		c-1.8,0-3.4-0.7-4.6-2.2C40.6,45,40,43.1,40,40.7c0-2.7,0.6-4.8,1.8-6.3c1.2-1.5,2.9-2.3,4.9-2.3C47.7,32.1,48.6,32.3,49.3,32.7z
		 M50.3,43.9c0.6-0.9,0.9-2,0.9-3.4c0-1.9-0.5-3.3-1.5-4.1c-0.6-0.5-1.3-0.7-2.1-0.7c-1.2,0-2.1,0.5-2.6,1.4c-0.6,0.9-0.8,2-0.8,3.4
		c0,1.4,0.3,2.6,0.9,3.5c0.6,0.9,1.4,1.3,2.6,1.3S49.7,44.8,50.3,43.9z"/>
	<path fill="#E3D40C" d="M69.2,32.8c1.1,0.5,2,1.3,2.7,2.3c0.6,0.9,1.1,2,1.2,3.2c0.1,0.7,0.2,1.8,0.1,3.1H61.9
		c0.1,1.6,0.6,2.7,1.6,3.3c0.6,0.4,1.4,0.6,2.3,0.6c0.9,0,1.7-0.2,2.3-0.7c0.3-0.3,0.6-0.6,0.8-1.1h4.2c-0.1,0.9-0.6,1.9-1.5,2.8
		c-1.4,1.5-3.4,2.3-5.9,2.3c-2.1,0-3.9-0.6-5.5-1.9s-2.4-3.4-2.4-6.3c0-2.7,0.7-4.8,2.2-6.3s3.3-2.2,5.6-2.2
		C66.9,32.1,68.1,32.3,69.2,32.8z M63.1,36.4c-0.6,0.6-0.9,1.4-1.1,2.4H69c-0.1-1.1-0.4-1.9-1.1-2.5c-0.7-0.6-1.5-0.8-2.4-0.8
		C64.5,35.5,63.7,35.8,63.1,36.4z"/>
	<path fill="#969011" d="M94.9,32.5c0.7,0.3,1.3,0.7,1.8,1.4c0.4,0.5,0.7,1.2,0.9,2c0.1,0.5,0.1,1.3,0.1,2.3l0,9.9h-4.2v-10
		c0-0.6-0.1-1.1-0.3-1.5c-0.4-0.7-1-1.1-2-1.1c-1.1,0-1.9,0.5-2.3,1.4c-0.2,0.5-0.3,1.1-0.3,1.8v9.3h-4.1v-9.3c0-0.9-0.1-1.6-0.3-2
		c-0.3-0.8-1-1.1-2-1.1c-1.2,0-2,0.4-2.4,1.1c-0.2,0.4-0.3,1.1-0.3,1.9v9.4h-4.2V32.5h4v2.3c0.5-0.8,1-1.4,1.4-1.7
		c0.8-0.6,1.8-0.9,3.1-0.9c1.2,0,2.2,0.3,2.9,0.8c0.6,0.5,1,1.1,1.4,1.9c0.5-0.9,1.2-1.6,2-2c0.8-0.4,1.8-0.6,2.8-0.6
		C93.6,32.1,94.3,32.3,94.9,32.5z"/>
</g>
</svg>
