<svg xmlns="http://www.w3.org/2000/svg" version="1.1" id="Capa_1" x="0" y="0" viewBox="0 0 102 44" enable-background="new 0 0 102 44" xml:space="preserve"><metadata><sfw xmlns="http://ns.adobe.com/SaveForWeb/1.0/"><sliceSourceBounds width="102" height="44.01" y="-44" x="0" bottomLeftOrigin="true"/></sfw></metadata><path d="M3.86 0v25.58c0 2.53 1.24 3.39 2.49 3.39H7.8c0 0 0.58 1.42 0.82 1.93 0.29 0.64 0.87 1.67 0.87 1.67H5.91C2.36 32.56 0 30.55 0 25.88V0H3.86z"/><path d="M56.92 21.42c0 4.29 3.69 8.06 7.97 8.06 4.29 0 7.97-3.77 7.97-8.06 0-4.63-3.68-8.1-7.97-8.1C60.61 13.32 56.92 16.79 56.92 21.42M64.9 9.72c7.03 0 12.08 5.4 12.08 11.7 0 6.39-4.8 11.66-12.08 11.66 -7.29 0-12.09-5.27-12.09-11.66C52.81 15.12 57.87 9.72 64.9 9.72"/><path d="M81.94 21.42c0 4.29 3.68 8.06 7.97 8.06 4.29 0 7.97-3.77 7.97-8.06 0-4.63-3.68-8.1-7.97-8.1C85.63 13.32 81.94 16.79 81.94 21.42M89.91 9.72c7.03 0 12.09 5.4 12.09 11.7 0 6.39-4.8 11.66-12.09 11.66 -7.28 0-12.09-5.27-12.09-11.66C77.83 15.12 82.89 9.72 89.91 9.72"/><rect x="77.84" y="10.24" width="4.11" height="31.72"/><path fill="#7E7A00" d="M30.12 0.11c-12.12 0-21.95 9.83-21.95 21.95C8.18 34.18 18.01 44 30.12 44c12.12 0 21.95-9.83 21.95-21.95C52.07 9.94 42.25 0.11 30.12 0.11zM31.4 41.46c-10.72 0-19.4-8.69-19.4-19.4 0-10.71 8.69-19.4 19.4-19.4 10.71 0 19.4 8.69 19.4 19.4C50.8 32.77 42.11 41.46 31.4 41.46z"/><path fill="#DCCD00" d="M21.06 6.36c-8.67 5.01-11.64 16.09-6.64 24.76 5.01 8.67 16.09 11.64 24.77 6.64 8.67-5.01 11.64-16.09 6.64-24.77C40.82 4.32 29.73 1.35 21.06 6.36zM39.02 34.92c-7.45 4.3-16.99 1.75-21.29-5.7 -4.3-7.45-1.75-16.99 5.7-21.29 7.45-4.3 16.99-1.75 21.29 5.7C49.03 21.08 46.47 30.62 39.02 34.92z"/><path fill="#F29400" d="M17.73 14.9c-3.95 6.85-1.61 15.6 5.24 19.55 6.85 3.95 15.6 1.61 19.55-5.24 3.95-6.85 1.61-15.6-5.24-19.55C30.44 5.71 21.68 8.06 17.73 14.9zM41.23 27c-3.34 5.78-10.73 7.76-16.51 4.42 -5.78-3.34-7.76-10.73-4.42-16.51 3.34-5.78 10.73-7.76 16.51-4.42C42.59 13.83 44.57 21.22 41.23 27z"/><path fill="#D40028" d="M19.31 22.06c0 5.97 4.84 10.81 10.81 10.81 5.97 0 10.81-4.84 10.81-10.81 0-5.97-4.84-10.81-10.81-10.81C24.15 11.24 19.31 16.09 19.31 22.06zM38.71 20.79c0 4.74-3.84 8.59-8.59 8.59 -4.74 0-8.59-3.84-8.59-8.59 0-4.74 3.84-8.59 8.59-8.59C34.87 12.2 38.71 16.04 38.71 20.79z"/></svg>